<?xml version="1.0" encoding="iso-8859-1"?>
<!-- Uploaded to: SVG Repo, www.svgrepo.com, Generator: SVG Repo Mixer Tools -->
<svg fill="#000000" version="1.1" id="Layer_1" xmlns="http://www.w3.org/2000/svg" xmlns:xlink="http://www.w3.org/1999/xlink" 
	 viewBox="0 0 512 512" xml:space="preserve">
<g>
	<g>
		<path d="M377.962,164.226h-10.868v-30.179c0-18.559-12.519-34.083-29.946-37.788L319.509,7.16C318.608,2.651,314.943,0,310.34,0
			H165.434c-4.604,0-8.571,2.651-9.472,7.16l-18.544,89.401c-17.428,3.705-31.154,18.927-31.154,37.486v241.491
			c0,18.559,13.726,34.083,31.154,37.788l18.242,90.307c0.901,4.509,5.17,8.368,9.774,8.368H310.34c4.604,0,8.571-3.859,9.472-8.368
			l17.337-90.005c17.427-3.705,29.946-19.531,29.946-38.09v-30.344c16.906-4.318,28.981-19.313,28.981-37.269
			c0-17.955-12.076-32.951-28.981-37.269V251.17h10.868c15.981,0,27.774-14.236,27.774-30.245v-28.868
			C405.736,176.047,393.943,164.226,377.962,164.226z M173.354,19.321H302.42l15.458,77.283H157.896L173.354,19.321z
			 M302.42,492.679H173.354l-15.458-77.283h159.981L302.42,492.679z M347.774,172.679v67.623v135.236
			c0,10.66-7.42,20.538-18.024,20.538h-0.09H146.113h-0.09c-10.604,0-20.439-9.877-20.439-20.538V134.047
			c0-10.66,9.835-18.123,20.439-18.123h0.09H329.66h0.09c10.604,0,18.024,7.462,18.024,18.123V172.679z M376.755,307.925
			c0,7.118-2.415,13.281-9.66,16.632v-33.264C374.34,294.644,376.755,300.807,376.755,307.925z M386.415,220.925
			c0,5.358-3.127,10.924-8.453,10.924h-10.868v-48.302h10.868c5.415,0,8.453,3.057,8.453,8.509V220.925z"/>
	</g>
</g>
<g>
	<g>
		<path d="M310.623,309.132H173.887V172.679c0-5.34-4.325-9.66-9.66-9.66c-5.335,0-9.66,4.321-9.66,9.66v136.453h-8.453
			c-5.335,0-9.66,4.321-9.66,9.66c0,5.34,4.325,9.66,9.66,9.66h8.453v8.453c0,5.34,4.325,9.66,9.66,9.66
			c5.335,0,9.66-4.321,9.66-9.66v-8.453h136.736c5.335,0,9.66-4.321,9.66-9.66C320.283,313.453,315.958,309.132,310.623,309.132z"/>
	</g>
</g>
<g>
	<g>
		<rect x="202.868" y="202.868" width="19.321" height="86.943"/>
	</g>
</g>
<g>
	<g>
		<rect x="251.17" y="222.189" width="19.321" height="67.623"/>
	</g>
</g>
<g>
	<g>
		<rect x="299.472" y="241.509" width="19.321" height="48.302"/>
	</g>
</g>
</svg>